<?xml version="1.0" encoding="UTF-8" standalone="no"?>
<!-- Created with Inkscape (http://www.inkscape.org/) -->

<svg
   width="10.583333mm"
   height="10.583333mm"
   viewBox="0 0 10.583333 10.583333"
   version="1.1"
   id="svg5"
   sodipodi:docname="logo_gps4net.svg"
   inkscape:version="1.2.2 (732a01da63, 2022-12-09, custom)"
   xmlns:inkscape="http://www.inkscape.org/namespaces/inkscape"
   xmlns:sodipodi="http://sodipodi.sourceforge.net/DTD/sodipodi-0.dtd"
   xmlns="http://www.w3.org/2000/svg"
   xmlns:svg="http://www.w3.org/2000/svg">
  <sodipodi:namedview
     id="namedview7"
     pagecolor="#ffffff"
     bordercolor="#666666"
     borderopacity="1.0"
     inkscape:pageshadow="2"
     inkscape:pageopacity="0.0"
     inkscape:pagecheckerboard="true"
     inkscape:document-units="mm"
     showgrid="false"
     inkscape:zoom="4.2532752"
     inkscape:cx="65.714064"
     inkscape:cy="28.448665"
     inkscape:window-width="1877"
     inkscape:window-height="1025"
     inkscape:window-x="0"
     inkscape:window-y="27"
     inkscape:window-maximized="1"
     inkscape:current-layer="layer1"
     inkscape:showpageshadow="2"
     inkscape:deskcolor="#d1d1d1"
     showguides="false" />
  <defs
     id="defs2" />
  <g
     inkscape:label="Layer 1"
     inkscape:groupmode="layer"
     id="layer1"
     transform="translate(-37.42127,-198.12234)">
    <g
       id="g4563"
       transform="matrix(0.4080412,0,0,0.39674821,22.15185,119.51766)" />
    <path
       style="fill:#ffffff;fill-opacity:1;stroke-width:0.0887133;image-rendering:crisp-edges"
       d="m 42.82084,206.7211 -0.338357,-0.0103 0.413583,-0.068 c 0.227471,-0.0374 0.531111,-0.12746 0.674755,-0.20009 0.143645,-0.0727 0.350286,-0.22488 0.459204,-0.33829 0.108917,-0.11343 0.278693,-0.38353 0.377278,-0.60023 0.09859,-0.2167 0.252345,-0.8369 0.280072,-1.00489 0.02773,-0.16799 0.04135,-0.57023 0.04135,-0.57023 0,0 0.0019,-0.42047 0.0025,-0.56552 6.36e-4,-0.14505 -0.07596,-0.855 -0.197223,-0.95176 -0.121266,-0.0968 -0.454251,-0.12593 -0.454251,-0.12593 l -0.416405,-0.0112 c -0.352621,0.0264 -0.795436,0.10798 -1.01796,0.16001 -0.222522,0.052 -0.534691,0.12548 -0.78098,0.20428 -0.246289,0.0788 -0.694067,0.26219 -0.694067,0.26219 -0.37514,0.15199 -0.745118,0.37236 -1.010947,0.59173 -0.26583,0.21937 -0.431068,0.45042 -0.470517,0.5355 -0.04549,0.0981 -0.03915,0.28749 -0.03915,0.33631 0,0.0488 0.03068,0.22134 0.179666,0.38631 l 0.201845,0.21653 c 0.229701,0.14211 0.171309,0.0909 0.256963,0.13635 0.116758,0.0619 0.259538,0.0826 0.23307,0.10836 -0.02647,0.0257 -0.242416,0.0465 -0.530246,-0.10049 -0.197663,-0.0808 -0.307963,-0.2107 -0.42481,-0.37822 -0.116846,-0.16751 -0.140563,-0.27805 -0.153063,-0.35955 -0.01251,-0.0815 -0.01636,-0.23051 0.04574,-0.40891 0.06209,-0.17839 0.108798,-0.21214 0.220268,-0.34896 0.111469,-0.13681 0.356079,-0.34142 0.597213,-0.51353 0.241136,-0.1721 0.747145,-0.4516 1.124467,-0.62111 0.377321,-0.16951 0.994068,-0.3848 1.370548,-0.47842 0.376481,-0.0936 0.839038,-0.14761 1.024679,-0.17022 0.21691,-0.0264 0.364455,-0.0383 0.394139,-0.0849 0.02968,-0.0467 -0.0071,-0.19965 -0.08164,-0.33989 -0.07458,-0.14024 -0.319488,-0.41235 -0.544227,-0.6047 0,0 -0.162124,-0.14712 -0.349528,-0.27464 -0.187404,-0.12751 -0.310694,-0.14781 -0.478811,-0.17785 -0.168117,-0.03 -0.41345,-0.0281 -0.41345,-0.0281 0,0 -0.29316,-5e-4 -0.438832,0.0263 -0.145672,0.0268 -0.292273,0.0731 -0.428056,0.13471 -0.135782,0.0617 -0.380453,0.23214 -0.380453,0.23214 l -0.476447,0.40996 0.202008,-0.2842 c 0.03617,-0.0509 0.5067,-0.45826 0.742199,-0.53829 0,0 0.237067,-0.0976 0.390032,-0.13253 0.152966,-0.0349 0.342549,-0.0636 0.525449,-0.0641 0.1829,-5e-4 0.393244,0.0183 0.563814,0.0656 0.17057,0.0473 0.308911,0.11759 0.45899,0.18569 0.150079,0.0681 0.427603,0.25838 0.427603,0.25838 0,0 0.165707,0.11989 0.334778,0.28686 0.16907,0.16695 0.396558,0.54258 0.487713,0.6902 0,0 0.08379,0.15529 0.139283,0.20918 0.0555,0.0538 0.180062,0.11306 0.180062,0.11306 0.112388,0.0706 0.386676,0.16847 0.600988,0.30943 0.214312,0.14097 0.285673,0.29374 0.317638,0.37931 0.03197,0.0856 0.04692,0.11125 0.05079,0.27519 0.0039,0.16395 -0.08769,0.40624 -0.185859,0.54443 -0.09341,0.13148 -0.198676,0.18924 -0.249303,0.20632 l -0.116471,0.0393 0.147826,-0.15882 c 0.08131,-0.0874 0.171889,-0.27581 0.201298,-0.41878 0,0 0.0247,-0.18215 0.01117,-0.25645 -0.01352,-0.0743 -0.03083,-0.1186 -0.08258,-0.18815 -0.05176,-0.0696 -0.151569,-0.15281 -0.377657,-0.2237 -0.226086,-0.0708 -0.27472,-0.0654 -0.27472,-0.0654 0,0 0.14726,0.70616 0.147503,1.05935 2.43e-4,0.35318 -0.04933,0.70703 -0.119689,1.05372 -0.05533,0.27262 -0.127561,0.54439 -0.236654,0.80123 -0.06939,0.16336 -0.142251,0.29945 -0.263224,0.46441 -0.120974,0.16498 -0.250247,0.31991 -0.472759,0.5084 -0.222513,0.18848 -0.311094,0.2278 -0.529387,0.32757 0,0 -0.270692,0.0713 -0.393922,0.10108 -0.123231,0.0298 -0.404869,0.0472 -0.404869,0.0472 z"
       id="path4573"
       sodipodi:nodetypes="ccsssszczzcczzszssscssczzzzssssssszzczzccsszzzzczszszzzsscsszzzczaazzszcc" />
  </g>
</svg>
